<svg xmlns="http://www.w3.org/2000/svg" viewBox="0 0 135.88 135.88"><defs><style>.cls-1{fill:#505084;}.cls-1,.cls-2{fill-rule:evenodd;}.cls-2,.cls-3{fill:#fefefe;}</style></defs><g id="Layer_3" data-name="Layer 3"><path class="cls-1" d="M67.94,135.88A67.94,67.94,0,1,0,0,67.94,68.07,68.07,0,0,0,67.94,135.88Z"/><path class="cls-1" d="M67.94,2.22A65.72,65.72,0,1,1,2.22,67.94,65.72,65.72,0,0,1,67.94,2.22Z"/><path class="cls-2" d="M88.51,5.51A65.41,65.41,0,0,1,100.81,11a66.25,66.25,0,0,1,10.92,7.89L104,27.6c-2.1,2.35-4.71,3-7.51,1a50,50,0,0,0-4.23-2.74c-1.45-.84-3-1.6-4.49-2.3-3.16-1.41-3.86-4-2.88-7Z"/><path class="cls-2" d="M24.16,18.91A66.08,66.08,0,0,1,47.37,5.51L51,16.57c1,3,.29,5.6-2.87,7-1.54.7-3,1.46-4.49,2.3a48.46,48.46,0,0,0-4.23,2.74c-2.81,2-5.41,1.33-7.52-1Z"/><path class="cls-2" d="M3.59,81.34a66.27,66.27,0,0,1,0-26.81L15,56.91c3.09.64,5,2.55,4.64,6a48.88,48.88,0,0,0,0,10.07c.36,3.45-1.55,5.36-4.64,6Z"/><path class="cls-2" d="M24.16,117a66.08,66.08,0,0,0,23.21,13.4L51,119.31c1-3,.29-5.6-2.87-7a48.88,48.88,0,0,1-8.72-5c-2.81-2-5.41-1.33-7.52,1Z"/><path class="cls-2" d="M88.51,130.37a65.41,65.41,0,0,0,12.3-5.51A66.25,66.25,0,0,0,111.73,117L104,108.28c-2.1-2.35-4.71-3-7.51-1A50,50,0,0,1,92.23,110a48.56,48.56,0,0,1-4.49,2.29c-3.16,1.42-3.86,4-2.88,7Z"/><path class="cls-2" d="M132.29,81.34a66.27,66.27,0,0,0,0-26.81l-11.4,2.38c-3.09.64-5,2.55-4.64,6a48.88,48.88,0,0,1,0,10.07c-.35,3.45,1.55,5.36,4.64,6Z"/><path class="cls-2" d="M67.94,14.74A3.94,3.94,0,1,0,64,10.8,3.95,3.95,0,0,0,67.94,14.74Z"/><path class="cls-2" d="M15.05,37.4a3.94,3.94,0,1,1,1.44,5.38A3.94,3.94,0,0,1,15.05,37.4Z"/><path class="cls-2" d="M15.05,98.48a3.94,3.94,0,1,1,5.38,1.44A3.94,3.94,0,0,1,15.05,98.48Z"/><circle class="cls-3" cx="67.94" cy="67.94" r="43.76"/><path class="cls-1" d="M67.94,106.9a39,39,0,1,0-39-39A39,39,0,0,0,67.94,106.9Z"/><circle class="cls-3" cx="67.94" cy="125.08" r="3.94"/><path class="cls-2" d="M120.83,98.48a3.93,3.93,0,1,0-5.37,1.44A3.94,3.94,0,0,0,120.83,98.48Z"/><path class="cls-2" d="M120.83,37.4a3.93,3.93,0,1,0-1.43,5.38A3.93,3.93,0,0,0,120.83,37.4Z"/></g></svg>