<svg xmlns="http://www.w3.org/2000/svg" id="Layer_1" data-name="Layer 1" viewBox="0 0 135.88 135.88"><defs><style>.cls-1{fill:#505084;}.cls-1,.cls-2{fill-rule:evenodd;}.cls-2,.cls-3{fill:#fefefe;}.cls-4{fill:#be1e2d;}.cls-5{fill:#ec1c24;}.cls-6{fill:#fff;}</style></defs><g id="Layer_3" data-name="Layer 3"><path class="cls-1" d="M67.94,135.88A67.94,67.94,0,1,0,0,67.94,67.94,67.94,0,0,0,67.94,135.88Z" transform="translate(0 0)"></path><path class="cls-1" d="M67.94,2.22A65.72,65.72,0,1,1,2.22,67.94,65.72,65.72,0,0,1,67.94,2.22Z" transform="translate(0 0)"></path><path class="cls-2" d="M88.51,5.51A65.13,65.13,0,0,1,100.81,11a66.21,66.21,0,0,1,10.92,7.89L104,27.6c-2.1,2.35-4.71,3-7.51,1a49.3,49.3,0,0,0-4.23-2.74c-1.45-.84-3-1.6-4.49-2.3-3.16-1.41-3.86-4-2.88-7Z" transform="translate(0 0)"></path><path class="cls-2" d="M24.16,18.91A65.94,65.94,0,0,1,47.37,5.51L51,16.57c1,3,.29,5.6-2.87,7-1.54.7-3,1.46-4.49,2.3a47,47,0,0,0-4.23,2.74c-2.81,2-5.41,1.33-7.52-1Z" transform="translate(0 0)"></path><path class="cls-2" d="M3.59,81.34a66.15,66.15,0,0,1,0-26.81L15,56.91c3.09.64,5,2.55,4.64,6a48.42,48.42,0,0,0,0,10.07c.36,3.45-1.55,5.36-4.64,6Z" transform="translate(0 0)"></path><path class="cls-2" d="M24.16,117a65.94,65.94,0,0,0,23.21,13.4L51,119.31c1-3,.29-5.6-2.87-7a49,49,0,0,1-8.72-5c-2.81-2-5.41-1.33-7.52,1Z" transform="translate(0 0)"></path><path class="cls-2" d="M88.51,130.37a65.21,65.21,0,0,0,12.3-5.51A66,66,0,0,0,111.73,117L104,108.28c-2.1-2.35-4.71-3-7.51-1A48.73,48.73,0,0,1,92.23,110a49.85,49.85,0,0,1-4.49,2.29c-3.16,1.42-3.86,4-2.88,7Z" transform="translate(0 0)"></path><path class="cls-2" d="M132.29,81.34a66.15,66.15,0,0,0,0-26.81l-11.4,2.38c-3.09.64-5,2.55-4.64,6a48.42,48.42,0,0,1,0,10.07c-.35,3.45,1.55,5.36,4.64,6Z" transform="translate(0 0)"></path><path class="cls-2" d="M67.94,14.74A3.94,3.94,0,1,0,64,10.8,3.93,3.93,0,0,0,67.94,14.74Z" transform="translate(0 0)"></path><path class="cls-2" d="M15.05,37.4a3.94,3.94,0,1,1,1.44,5.38h0A3.94,3.94,0,0,1,15.05,37.4Z" transform="translate(0 0)"></path><path class="cls-2" d="M15.05,98.48a3.94,3.94,0,1,1,5.38,1.44h0A3.94,3.94,0,0,1,15.05,98.48Z" transform="translate(0 0)"></path><circle class="cls-3" cx="67.94" cy="67.94" r="43.76"></circle><path class="cls-1" d="M67.94,106.9a39,39,0,1,0-39-39h0A39,39,0,0,0,67.94,106.9Z" transform="translate(0 0)"></path><circle class="cls-3" cx="67.94" cy="125.08" r="3.94"></circle><path class="cls-2" d="M120.83,98.48a3.93,3.93,0,1,0-5.37,1.44A3.94,3.94,0,0,0,120.83,98.48Z" transform="translate(0 0)"></path><path class="cls-2" d="M120.83,37.4a3.93,3.93,0,1,0-1.43,5.38,3.92,3.92,0,0,0,1.43-5.38Z" transform="translate(0 0)"></path></g><path class="cls-4" d="M44.74,85.65a.69.69,0,0,1-.31.55,1.38,1.38,0,0,1-.91.29,1.75,1.75,0,0,1-1-.24.84.84,0,0,1-.4-.73V82.08a1,1,0,0,1,.29-.76A1.73,1.73,0,0,1,43.52,81a1.42,1.42,0,0,1,.95.28.87.87,0,0,1,.27.67v1H43.68V81.89a.13.13,0,0,0,0-.1.3.3,0,0,0-.26,0,.11.11,0,0,0-.05.1v3.72a.11.11,0,0,0,.05.1.28.28,0,0,0,.13,0,.22.22,0,0,0,.13,0,.13.13,0,0,0,0-.1V84.29h1.06Z" transform="translate(0 0)"></path><path class="cls-4" d="M46.16,86.42H45V81.08h1.17Z" transform="translate(0 0)"></path><path class="cls-4" d="M49.37,86.42H48.16l-.8-2.85v2.85h-1V81.08h1.34l.67,2.44V81.08h1Z" transform="translate(0 0)"></path><path class="cls-4" d="M52.61,86.42h-1.2l-.81-2.85v2.85h-1V81.08H51l.67,2.44V81.08h1Z" transform="translate(0 0)"></path><path class="cls-4" d="M56.05,86.42H54.9L54.69,85h-.54L54,86.42H52.8l.88-5.34h1.49Zm-1.46-2.16-.17-1.61-.17,1.61Z" transform="translate(0 0)"></path><path class="cls-4" d="M60.33,86.42H59.27v-3l-.61,3h-.81l-.69-3v3h-.93V81.08h1.52l.53,2.77.48-2.77h1.57Z" transform="translate(0 0)"></path><path class="cls-4" d="M63.27,85.52a.8.8,0,0,1-.38.71,1.63,1.63,0,0,1-1,.26,1.76,1.76,0,0,1-1-.25.8.8,0,0,1-.38-.72V82.08a1,1,0,0,1,.29-.76A1.69,1.69,0,0,1,61.94,81a1.57,1.57,0,0,1,1,.27.92.92,0,0,1,.33.76Zm-1.14.06V81.93a.17.17,0,0,0-.05-.13.28.28,0,0,0-.15,0,.35.35,0,0,0-.16,0,.17.17,0,0,0-.05.13v3.65a.15.15,0,0,0,.05.12.25.25,0,0,0,.16,0,.21.21,0,0,0,.15,0A.15.15,0,0,0,62.13,85.58Z" transform="translate(0 0)"></path><path class="cls-4" d="M66.49,86.42H65.28l-.8-2.85v2.85h-1V81.08h1.34l.67,2.44V81.08h1Z" transform="translate(0 0)"></path><path class="cls-4" d="M72.76,81.08l-.68,5.34h-1.4l-.42-2.94-.39,2.94h-1.2L68,81.08h1.06l.3,2.47.4-2.47h1.32l.32,2.47.39-2.47Z" transform="translate(0 0)"></path><path class="cls-4" d="M75.58,86.42H74.41V83.86h-.33v2.56H72.91V81.08h1.17V83.2h.33V81.08h1.17Z" transform="translate(0 0)"></path><path class="cls-4" d="M77,86.42H75.81V81.08H77Z" transform="translate(0 0)"></path><path class="cls-4" d="M79.87,85.42a1,1,0,0,1-.27.78,1.64,1.64,0,0,1-1.09.29,1.44,1.44,0,0,1-1.06-.35.87.87,0,0,1-.25-.62V84.29h1.06v1.24a.14.14,0,0,0,.07.13.22.22,0,0,0,.16,0,.27.27,0,0,0,.17,0,.16.16,0,0,0,0-.14v-.64a.56.56,0,0,0-.1-.35l-.57-.6c-.34-.36-.53-.56-.57-.62a1,1,0,0,1-.27-.64v-.6a1,1,0,0,1,.29-.76A1.71,1.71,0,0,1,78.56,81a1.44,1.44,0,0,1,1,.28.87.87,0,0,1,.27.67v.92H78.71v-1a.13.13,0,0,0,0-.12.18.18,0,0,0-.13,0,.2.2,0,0,0-.14,0s0,.06,0,.12v.5a.78.78,0,0,0,.23.51l.61.62a5.71,5.71,0,0,1,.47.53,1.11,1.11,0,0,1,.22.66Z" transform="translate(0 0)"></path><path class="cls-4" d="M83.05,86.42h-1.3l-.44-2v2H80.14V81.08h1.17v1.79l.52-1.79h1.08l-.71,2.44Z" transform="translate(0 0)"></path><path class="cls-4" d="M85.53,86.42h-2.3V81.08h2.28v.68H84.39V83.2h1v.66h-1v1.89h1.14Z" transform="translate(0 0)"></path><path class="cls-4" d="M88.92,81.08l-1.16,3.23v2.11H86.59V84.3l-1-3.22h1.12L87.26,83l.6-1.89Z" transform="translate(0 0)"></path><path class="cls-5" d="M49.74,64.23c.06-.09.11-.21.18-.34a2.06,2.06,0,0,0,.14-.44,1.77,1.77,0,0,0,0-.52,1.71,1.71,0,0,0-.13-.6,1.42,1.42,0,0,1,.45-.16.91.91,0,0,1,.44,0,.55.55,0,0,1,.3.28.91.91,0,0,1,0,.59,1.3,1.3,0,0,1-.13.33,1.44,1.44,0,0,1-.3.37,1.85,1.85,0,0,1-.44.32A1.44,1.44,0,0,1,49.74,64.23Z" transform="translate(0 0)"></path><path class="cls-5" d="M80.25,64.23l.17-.34a2.06,2.06,0,0,0,.14-.44,1.77,1.77,0,0,0,0-.52,1.94,1.94,0,0,0-.12-.6,1.29,1.29,0,0,1,.44-.16.91.91,0,0,1,.44,0,.55.55,0,0,1,.3.28.91.91,0,0,1,0,.59,1,1,0,0,1-.13.33,1.62,1.62,0,0,1-.29.37,2.14,2.14,0,0,1-.45.32A1.39,1.39,0,0,1,80.25,64.23Z" transform="translate(0 0)"></path><path class="cls-6" d="M50.54,60.32a4.56,4.56,0,0,1-.42,1.56,8.39,8.39,0,0,1-1,1.7,12.42,12.42,0,0,1-1.54,1.65,12.56,12.56,0,0,1-1.94,1.42,11.21,11.21,0,0,1-2.26,1,8.63,8.63,0,0,1-2.48.4,10.7,10.7,0,0,1-2.15-.16c-.1.26-.19.54-.28.83a6.89,6.89,0,0,0-.24.92l.12.08.12.07-.25-.08a5,5,0,0,0-.1.66c0,.23,0,.44,0,.65a3.5,3.5,0,0,1,1-.47,3.77,3.77,0,0,1,1.11-.16,11.51,11.51,0,0,1,1.87.15A14.37,14.37,0,0,1,43.9,71a4.27,4.27,0,0,0,.57-.9,2.78,2.78,0,0,0,.27-.94,1.56,1.56,0,0,0-.11-.78,1,1,0,0,0-.52-.54,2.22,2.22,0,0,1,1,0,1,1,0,0,1,.78.86,2.58,2.58,0,0,1,0,.62,3.47,3.47,0,0,1-.36,1,5.09,5.09,0,0,1-.72,1,22.68,22.68,0,0,1,2.6,1.09l2.52,1.27a6.35,6.35,0,0,0,1.31.17,4.84,4.84,0,0,0,1.31-.15,2.45,2.45,0,0,0,.88-.45,3.19,3.19,0,0,0,.65-.76.81.81,0,0,1,.06.67,1.49,1.49,0,0,1-.36.51,1.77,1.77,0,0,1-.55.35,3.2,3.2,0,0,1-.51.18,4.75,4.75,0,0,1-1.8,0c.51.25,1,.49,1.52.72s1,.42,1.53.6,1,.32,1.57.44a11,11,0,0,0,1.61.23,5.27,5.27,0,0,0,1,0,3.22,3.22,0,0,0,1-.26,1.93,1.93,0,0,0,.73-.57,1.7,1.7,0,0,0,.37-.93.86.86,0,0,0-.13-.62,1,1,0,0,0-.45-.36,1.47,1.47,0,0,0-.64-.08,1.38,1.38,0,0,0-.66.2,1.06,1.06,0,0,1,.37-.51,1.62,1.62,0,0,1,.61-.28,2.05,2.05,0,0,1,.7,0,1.59,1.59,0,0,1,.63.26,1.52,1.52,0,0,1,.45.57,1.82,1.82,0,0,1,.12.91,1.77,1.77,0,0,1-.26.85,2.45,2.45,0,0,1-.58.62,3.3,3.3,0,0,1-.77.4,6.9,6.9,0,0,1-.86.24,8.53,8.53,0,0,1-.85.1,5.52,5.52,0,0,1-.72,0A10.42,10.42,0,0,1,55,76.21a19.48,19.48,0,0,1-2.1-.74c-.7-.29-1.39-.62-2.09-1l-2.07-1.07c-.69-.37-1.39-.72-2.09-1.06s-1.41-.64-2.12-.9a7.63,7.63,0,0,1-.92.74,6.55,6.55,0,0,1-1.07.6,7.53,7.53,0,0,1-1.16.39,5,5,0,0,1-1.22.15A3.6,3.6,0,0,1,38.67,73a2.67,2.67,0,0,1-1-.84,2.24,2.24,0,0,0-.15.84,1.34,1.34,0,0,0,.2.75,1.3,1.3,0,0,0,.63.48,1.87,1.87,0,0,0,.68.14,2.79,2.79,0,0,0,.67-.13.91.91,0,0,1-.31.47,1,1,0,0,1-.47.25,1.38,1.38,0,0,1-.54,0,1.25,1.25,0,0,1-.48-.17,1.59,1.59,0,0,1-.76-.78,2.44,2.44,0,0,1-.19-1,2.17,2.17,0,0,1,.12-.74,2.42,2.42,0,0,1,.32-.62A3.79,3.79,0,0,1,37,70.43,5.7,5.7,0,0,1,37.08,69a2.57,2.57,0,0,1-.53-1,3.3,3.3,0,0,1-.15-1.07,3,3,0,0,1-.94-1.19,3.34,3.34,0,0,1-.26-1.45,4.44,4.44,0,0,1,.31-1.58,5.35,5.35,0,0,1,.82-1.4,6.81,6.81,0,0,1,1.2-1.2A8.63,8.63,0,0,1,39,59.17a8.93,8.93,0,0,1,1.71-.62,8,8,0,0,1,1.8-.25,5.22,5.22,0,0,1,1.64.16,2.68,2.68,0,0,1,1,.5,7.14,7.14,0,0,1,3-.73,2.62,2.62,0,0,1,1.74.48A1.71,1.71,0,0,1,50.54,60c.88.09,1.75.2,2.61.32s1.74.21,2.62.29,1.76.13,2.64.14a20.47,20.47,0,0,0,2.69-.14l.47,0,.5,0a1.75,1.75,0,0,0,.47-1.27,1.22,1.22,0,0,0-.53-1,1.33,1.33,0,0,0-.54-.24,1.62,1.62,0,0,0-.66,0,.89.89,0,0,0-.42.1,1.61,1.61,0,0,0-.47.29A.83.83,0,0,1,60,58a1.09,1.09,0,0,1,.23-.29l.27-.18.25-.09a2.09,2.09,0,0,1,.92-.06,1.79,1.79,0,0,1,.75.31,1.67,1.67,0,0,1,.51.6,2,2,0,0,1,.22.81,2.56,2.56,0,0,1-.31,1.33,15.68,15.68,0,0,0,1.62-.36,9.3,9.3,0,0,0,1.58-.58,8.42,8.42,0,0,0,1.39-.84,4.49,4.49,0,0,0,1-1.14,1.75,1.75,0,0,0,.18-.56,1.26,1.26,0,0,0,0-.58,1.06,1.06,0,0,0-.3-.49,1.15,1.15,0,0,0-.63-.28,1.49,1.49,0,0,1,.8-.22,1.3,1.3,0,0,1,.64.19,1.35,1.35,0,0,1,.44.45,1.05,1.05,0,0,1,.16.55,2.29,2.29,0,0,1-.12.76,2.77,2.77,0,0,1-.31.62,3.49,3.49,0,0,1-.43.52l-.48.45a5.57,5.57,0,0,1-1.27.86,10.45,10.45,0,0,1-1.47.58,13.8,13.8,0,0,1-1.6.37c-.55.1-1.09.17-1.63.24a4.17,4.17,0,0,1-2.82,1,9.84,9.84,0,0,1-1.75-.11c-.62-.09-1.3-.21-2.05-.37l-2.42-.53C52.54,60.71,51.59,60.51,50.54,60.32Zm-8-1.78a7.63,7.63,0,0,0-4.22,1.69A6.13,6.13,0,0,0,36.89,62a4.51,4.51,0,0,0-.57,2.18,3.46,3.46,0,0,0,.27,1.52,6.33,6.33,0,0,1,.95-2.09A7,7,0,0,1,39.07,62,8.88,8.88,0,0,1,41,60.86a12.91,12.91,0,0,1,2.18-.71c.29-.2.57-.39.86-.57s.57-.33.85-.48a2.54,2.54,0,0,0-1-.47A3.83,3.83,0,0,0,42.55,58.54ZM36.62,67a3.3,3.3,0,0,0,.54,1.67c.05-.19.11-.39.17-.59s.13-.4.2-.59A4,4,0,0,1,36.62,67Zm6.05-6.47a10.71,10.71,0,0,0-1.93.66A7.41,7.41,0,0,0,39,62.29a6.73,6.73,0,0,0-1.37,1.57A7.61,7.61,0,0,0,36.76,66a2.82,2.82,0,0,0,.93,1,17.55,17.55,0,0,1,2.15-3.57A17.32,17.32,0,0,1,42.67,60.55Zm-2.45,10a4,4,0,0,0-1.12.25,2.38,2.38,0,0,0-1,.6,2.1,2.1,0,0,0,.21.61,1.69,1.69,0,0,0,.39.49,2.14,2.14,0,0,0,.6.32,2.68,2.68,0,0,0,.85.12,3,3,0,0,0,.91-.14,5,5,0,0,0,.94-.38,7.74,7.74,0,0,0,.89-.56,5.37,5.37,0,0,0,.78-.72A13.06,13.06,0,0,0,42,70.75,11.78,11.78,0,0,0,40.22,70.58Zm5.32-10.32a.53.53,0,0,0,0-.14l-.55.05a4.87,4.87,0,0,0-.55.06,17,17,0,0,0-1.62,1.48,19.59,19.59,0,0,0-1.5,1.76A22.73,22.73,0,0,0,40,65.41a16.78,16.78,0,0,0-1.06,2s0,0,0,.07l0,.08a7.8,7.8,0,0,0,.91.16,7.56,7.56,0,0,0,3.31-.38,9.26,9.26,0,0,0,2-1,10,10,0,0,0,1.69-1.41,11.74,11.74,0,0,0,1.34-1.62A10.88,10.88,0,0,0,49,61.65a5.78,5.78,0,0,0,.44-1.46c-.61,0-1.22-.09-1.82-.11s-1.2,0-1.82,0l0,.21a2.75,2.75,0,0,1-.09.78,4.8,4.8,0,0,1-.3.85,5,5,0,0,1-.48.83,4.82,4.82,0,0,1-.61.72,3.55,3.55,0,0,1-.7.51,1.65,1.65,0,0,1-.73.21,1,1,0,0,1-.51-.09.87.87,0,0,1-.36-.44,1.53,1.53,0,0,0,.76,0,3,3,0,0,0,.78-.35A4.58,4.58,0,0,0,45,62a4.17,4.17,0,0,0,.43-.84A2.42,2.42,0,0,0,45.54,60.26Zm-.09-.44-.06-.12a.61.61,0,0,0,0-.12l-.43.28Zm.29,0c.64,0,1.27,0,1.89,0s1.24,0,1.86.1a1.51,1.51,0,0,0-.25-1,1,1,0,0,0-1-.33,4.56,4.56,0,0,0-1.34.27,7.37,7.37,0,0,0-1.37.65A1.48,1.48,0,0,1,45.74,59.8Zm6.19,17.34a6.77,6.77,0,0,0-.72-1,11.27,11.27,0,0,0-.87-1c-.31-.3-.61-.57-.91-.82s-.57-.46-.81-.64c.24.1.51.23.8.37s.59.3.88.47a8.64,8.64,0,0,1,.83.57,3.16,3.16,0,0,1,.64.62,1.64,1.64,0,0,1,.3.68A1,1,0,0,1,51.93,77.14Zm9.62-.3a.85.85,0,0,1-.2.64.93.93,0,0,1-.52.32,2.56,2.56,0,0,1-.93.06,7.12,7.12,0,0,1-1.06-.18c-.36-.1-.73-.21-1.1-.35l-1.09-.42-1-.41c-.32-.13-.61-.24-.87-.32a11,11,0,0,1,1.07.29l1.26.37c.43.12.87.22,1.31.32a10.17,10.17,0,0,0,1.25.18,4.23,4.23,0,0,0,1.09-.07A1.45,1.45,0,0,0,61.55,76.84Zm4.09-4.53a1.67,1.67,0,0,1,.14,1.21,2.63,2.63,0,0,1-.67,1.09,5.22,5.22,0,0,1-1.25.93,10.39,10.39,0,0,1-3.45,1.12,10,10,0,0,1-1.78.09,12.26,12.26,0,0,0,1.23-.23,10.36,10.36,0,0,0,1.39-.42,11.49,11.49,0,0,0,1.4-.62,8.22,8.22,0,0,0,1.3-.83,6.51,6.51,0,0,0,1-1.06A3.78,3.78,0,0,0,65.64,72.31Z" transform="translate(0 0)"></path><path class="cls-6" d="M47.29,71.15c-.33,0-.49-.22-.49-.61a4.53,4.53,0,0,1,.62-1.77l1.11-2.16c.1-.22.19-.43.27-.65a4.54,4.54,0,0,0,.2-.63,2.51,2.51,0,0,0,.08-.57.93.93,0,0,0-.08-.45,1.8,1.8,0,0,1,.66.24.9.9,0,0,1,.38.56A1.92,1.92,0,0,1,50,66a5.06,5.06,0,0,1-.62,1.37l-1.12,2a2.21,2.21,0,0,0-.43,1.15c0,.2.28.18.73-.06a3.32,3.32,0,0,0,.63-.44,4.52,4.52,0,0,0,.65-.66,4,4,0,0,0,.5-.76,1.58,1.58,0,0,0,.21-.74.81.81,0,0,0-.11-.43.67.67,0,0,0-.34-.32.64.64,0,0,1,.26,0,1,1,0,0,1,.34.07.66.66,0,0,1,.29.2.55.55,0,0,1,.11.39,2.05,2.05,0,0,1-.22.75,3.82,3.82,0,0,1-.48.78,5.81,5.81,0,0,1-.69.72,7.58,7.58,0,0,1-.8.6,4.56,4.56,0,0,1-.83.41A2.26,2.26,0,0,1,47.29,71.15Z" transform="translate(0 0)"></path><path class="cls-6" d="M54.29,66.46s.06-.12.15-.27a3.85,3.85,0,0,0,.24-.5,1.68,1.68,0,0,0,.12-.48.18.18,0,0,0-.2-.22,1.21,1.21,0,0,0-.71.42,9.77,9.77,0,0,0-.93,1c-.32.41-.63.83-.92,1.28s-.54.85-.72,1.18-.29.58-.37.78a3,3,0,0,0-.19.55,1.33,1.33,0,0,0,0,.43,2.84,2.84,0,0,0,.1.45,1.23,1.23,0,0,1-.52-.49,1.61,1.61,0,0,1-.14-.9,6.6,6.6,0,0,1,.37-1.46,14.46,14.46,0,0,1,1-2.14c.11-.21.2-.42.29-.64a6.08,6.08,0,0,0,.22-.64,2.52,2.52,0,0,0,.08-.58.89.89,0,0,0-.08-.45.79.79,0,0,1,.46.4,1.64,1.64,0,0,1,.2.7,3.66,3.66,0,0,1,0,.92,5.71,5.71,0,0,1-.29,1c.21-.3.44-.59.67-.88a7.75,7.75,0,0,1,.72-.77,4.09,4.09,0,0,1,.7-.55,1.33,1.33,0,0,1,.63-.22.67.67,0,0,1,.55.19.92.92,0,0,1,.19.53,2.16,2.16,0,0,1-.08.69,3.33,3.33,0,0,1-.26.67l-1.57,2.86a2.32,2.32,0,0,0-.42,1.15q0,.3.72-.06a3.32,3.32,0,0,0,.63-.44,4.52,4.52,0,0,0,.65-.66,4,4,0,0,0,.5-.76,1.58,1.58,0,0,0,.21-.74.91.91,0,0,0-.1-.43.73.73,0,0,0-.35-.32.67.67,0,0,1,.27,0,1.09,1.09,0,0,1,.34.07.69.69,0,0,1,.28.2.55.55,0,0,1,.11.39,2.24,2.24,0,0,1-.21.75,4.39,4.39,0,0,1-.49.78,5.81,5.81,0,0,1-.69.72,7.58,7.58,0,0,1-.8.6,4.26,4.26,0,0,1-.83.41,2.26,2.26,0,0,1-.77.16c-.33,0-.49-.22-.48-.61a4.64,4.64,0,0,1,.61-1.77Z" transform="translate(0 0)"></path><path class="cls-6" d="M60,66.46s.06-.12.15-.27a3.85,3.85,0,0,0,.24-.5,1.68,1.68,0,0,0,.12-.48.18.18,0,0,0-.2-.22,1.25,1.25,0,0,0-.72.42,11,11,0,0,0-.92,1c-.32.41-.63.83-.92,1.28s-.54.85-.72,1.18-.29.58-.38.78a4,4,0,0,0-.19.55,1.64,1.64,0,0,0,0,.43,2.84,2.84,0,0,0,.1.45,1.23,1.23,0,0,1-.52-.49,1.61,1.61,0,0,1-.14-.9,6,6,0,0,1,.36-1.46,15.81,15.81,0,0,1,1-2.14c.1-.21.2-.42.29-.64a4.34,4.34,0,0,0,.21-.64,2.57,2.57,0,0,0,.09-.58,1,1,0,0,0-.09-.45.81.81,0,0,1,.47.4,1.8,1.8,0,0,1,.2.7,3.27,3.27,0,0,1,0,.92,4.93,4.93,0,0,1-.28,1c.21-.3.43-.59.67-.88a7.7,7.7,0,0,1,.71-.77,4.52,4.52,0,0,1,.7-.55,1.36,1.36,0,0,1,.64-.22.64.64,0,0,1,.54.19.86.86,0,0,1,.2.53,2.16,2.16,0,0,1-.08.69,3.33,3.33,0,0,1-.26.67L59.6,69.36a2.43,2.43,0,0,0-.42,1.15c0,.2.28.18.73-.06a3.32,3.32,0,0,0,.63-.44,4.46,4.46,0,0,0,.64-.66,4.59,4.59,0,0,0,.51-.76,1.58,1.58,0,0,0,.21-.74.92.92,0,0,0-.11-.43.67.67,0,0,0-.34-.32.64.64,0,0,1,.26,0,1,1,0,0,1,.34.07.72.72,0,0,1,.29.2.6.6,0,0,1,.11.39,2.05,2.05,0,0,1-.22.75,3.82,3.82,0,0,1-.48.78,5.81,5.81,0,0,1-.69.72,8.78,8.78,0,0,1-.8.6,4.56,4.56,0,0,1-.83.41,2.31,2.31,0,0,1-.77.16c-.33,0-.49-.22-.48-.61a4.64,4.64,0,0,1,.61-1.77Z" transform="translate(0 0)"></path><path class="cls-6" d="M81.05,60.32a4.83,4.83,0,0,1-.43,1.56,8.39,8.39,0,0,1-1,1.7,11.79,11.79,0,0,1-1.54,1.65,12.56,12.56,0,0,1-1.94,1.42,11,11,0,0,1-2.26,1,8.58,8.58,0,0,1-2.48.4,10.7,10.7,0,0,1-2.15-.16c-.09.26-.19.54-.28.83a8.85,8.85,0,0,0-.24.92l.12.08.12.07-.25-.08a5,5,0,0,0-.09.66,3.53,3.53,0,0,0,0,.65,3.45,3.45,0,0,1,1-.47,3.87,3.87,0,0,1,1.11-.16,11.51,11.51,0,0,1,1.87.15A14,14,0,0,1,74.4,71a4.76,4.76,0,0,0,.58-.9,2.55,2.55,0,0,0,.26-.94,1.56,1.56,0,0,0-.11-.78,1,1,0,0,0-.52-.54,2.22,2.22,0,0,1,1,0,1,1,0,0,1,.78.86,2.15,2.15,0,0,1,0,.62,3,3,0,0,1-.36,1,5.09,5.09,0,0,1-.72,1,22.68,22.68,0,0,1,2.6,1.09c.85.42,1.69.84,2.52,1.27a6.44,6.44,0,0,0,1.31.17A4.84,4.84,0,0,0,83,73.65a2.37,2.37,0,0,0,.88-.45,3,3,0,0,0,.65-.76.81.81,0,0,1,.06.67,1.26,1.26,0,0,1-.36.51,1.77,1.77,0,0,1-.55.35,3.2,3.2,0,0,1-.51.18,4.75,4.75,0,0,1-1.8,0c.51.25,1,.49,1.52.72s1,.42,1.53.6,1,.32,1.57.44a11,11,0,0,0,1.61.23,5.38,5.38,0,0,0,1.06,0,3.23,3.23,0,0,0,1-.26,2,2,0,0,0,.74-.57,1.69,1.69,0,0,0,.36-.93.91.91,0,0,0-.12-.62,1.09,1.09,0,0,0-.46-.36,1.47,1.47,0,0,0-.64-.08,1.45,1.45,0,0,0-.66.2,1,1,0,0,1,.38-.51,1.58,1.58,0,0,1,.6-.28,2.05,2.05,0,0,1,.7,0,1.59,1.59,0,0,1,.63.26,1.43,1.43,0,0,1,.45.57,1.82,1.82,0,0,1,.12.91,1.77,1.77,0,0,1-.26.85,2.28,2.28,0,0,1-.58.62,3.3,3.3,0,0,1-.77.4,6.9,6.9,0,0,1-.86.24,8.53,8.53,0,0,1-.85.1,5.59,5.59,0,0,1-.72,0,10.54,10.54,0,0,1-2.15-.38,19.48,19.48,0,0,1-2.1-.74c-.7-.29-1.39-.62-2.09-1l-2.07-1.07c-.69-.37-1.39-.72-2.09-1.06s-1.41-.64-2.12-.9a7.63,7.63,0,0,1-.92.74,6.89,6.89,0,0,1-1.06.6,8,8,0,0,1-1.17.39,5,5,0,0,1-1.21.15A3.61,3.61,0,0,1,69.17,73a2.67,2.67,0,0,1-1-.84A2.47,2.47,0,0,0,68,73a1.26,1.26,0,0,0,.19.75,1.3,1.3,0,0,0,.63.48,1.91,1.91,0,0,0,.68.14,2.79,2.79,0,0,0,.67-.13.91.91,0,0,1-.31.47,1,1,0,0,1-.47.25,1.35,1.35,0,0,1-.53,0,1.3,1.3,0,0,1-.49-.17,1.63,1.63,0,0,1-.76-.78,2.44,2.44,0,0,1-.19-1,2.17,2.17,0,0,1,.12-.74,2.42,2.42,0,0,1,.32-.62,3.78,3.78,0,0,1-.34-1.28A5.27,5.27,0,0,1,67.58,69a2.71,2.71,0,0,1-.53-1,3.3,3.3,0,0,1-.15-1.07A3.11,3.11,0,0,1,66,65.73a3.34,3.34,0,0,1-.26-1.45A4.44,4.44,0,0,1,66,62.7a5.65,5.65,0,0,1,.82-1.4A6.55,6.55,0,0,1,68,60.1a8.19,8.19,0,0,1,1.5-.93,9.44,9.44,0,0,1,1.71-.62,8,8,0,0,1,1.8-.25,5.19,5.19,0,0,1,1.64.16,2.73,2.73,0,0,1,1,.5,7.06,7.06,0,0,1,3-.73,2.62,2.62,0,0,1,1.74.48,1.76,1.76,0,0,1,.6,1.29c.87.09,1.74.2,2.6.32s1.74.21,2.62.29,1.76.13,2.64.14a20.38,20.38,0,0,0,2.69-.14l.47,0,.5,0A1.71,1.71,0,0,0,93,59.25a1.22,1.22,0,0,0-.53-1A1.33,1.33,0,0,0,92,58a1.62,1.62,0,0,0-.66,0,.89.89,0,0,0-.42.1,1.56,1.56,0,0,0-.46.29.83.83,0,0,1,.1-.43,1.09,1.09,0,0,1,.23-.29,2.11,2.11,0,0,1,.27-.18l.25-.09a2.1,2.1,0,0,1,.92-.06,1.73,1.73,0,0,1,.75.31,1.67,1.67,0,0,1,.51.6,2,2,0,0,1,.22.81,2.66,2.66,0,0,1-.3,1.33q.8-.13,1.62-.36a9.52,9.52,0,0,0,1.57-.58A8,8,0,0,0,98,58.63,4.72,4.72,0,0,0,99,57.49a2.45,2.45,0,0,0,.18-.56,1.26,1.26,0,0,0,0-.58,1.06,1.06,0,0,0-.3-.49,1.12,1.12,0,0,0-.63-.28,1.49,1.49,0,0,1,.8-.22,1.37,1.37,0,0,1,.65.19,1.42,1.42,0,0,1,.43.45,1.05,1.05,0,0,1,.16.55,2.29,2.29,0,0,1-.12.76,2.77,2.77,0,0,1-.31.62,3.42,3.42,0,0,1-.42.52l-.48.45a5.86,5.86,0,0,1-1.28.86,10.45,10.45,0,0,1-1.47.58,13.8,13.8,0,0,1-1.6.37c-.54.1-1.09.17-1.63.24a4.17,4.17,0,0,1-2.82,1,9.84,9.84,0,0,1-1.75-.11c-.62-.09-1.3-.21-2-.37l-2.42-.53C83,60.71,82.09,60.51,81.05,60.32Zm-8-1.78a7.22,7.22,0,0,0-2.23.52,7.34,7.34,0,0,0-2,1.17A6.13,6.13,0,0,0,67.39,62a4.51,4.51,0,0,0-.57,2.18,3.46,3.46,0,0,0,.27,1.52,6.33,6.33,0,0,1,1-2.09A7,7,0,0,1,69.57,62a9.12,9.12,0,0,1,1.94-1.13,13,13,0,0,1,2.19-.71c.28-.2.56-.39.85-.57s.57-.33.85-.48a2.54,2.54,0,0,0-1-.47A3.83,3.83,0,0,0,73.05,58.54ZM67.16,67.1a3,3,0,0,0,.49,1.51,4.61,4.61,0,0,1,.15-.53q.08-.27.18-.54A3.22,3.22,0,0,1,67.16,67.1Zm6-6.55a10.61,10.61,0,0,0-1.92.66,7.26,7.26,0,0,0-1.71,1.08,6.73,6.73,0,0,0-1.37,1.57A7.61,7.61,0,0,0,67.26,66a2.76,2.76,0,0,0,.94,1,17.11,17.11,0,0,1,2.15-3.57A16.9,16.9,0,0,1,73.17,60.55Zm-2.45,10a4.11,4.11,0,0,0-1.12.25,2.38,2.38,0,0,0-1,.6,2.1,2.1,0,0,0,.21.61,1.69,1.69,0,0,0,.39.49,2.14,2.14,0,0,0,.6.32,2.68,2.68,0,0,0,.85.12,3,3,0,0,0,.91-.14,5,5,0,0,0,.94-.38,7,7,0,0,0,.89-.56,5.37,5.37,0,0,0,.78-.72,12.69,12.69,0,0,0-1.72-.42A11.78,11.78,0,0,0,70.72,70.58ZM76,60.26a.53.53,0,0,0,0-.14l-.55.05a4.69,4.69,0,0,0-.54.06,15.92,15.92,0,0,0-1.63,1.48,19.59,19.59,0,0,0-1.5,1.76,22.73,22.73,0,0,0-1.31,1.94,16.78,16.78,0,0,0-1.06,2l0,.07,0,.08a8.19,8.19,0,0,0,.91.16,7.56,7.56,0,0,0,3.31-.38,9.58,9.58,0,0,0,2-1,10.29,10.29,0,0,0,1.68-1.41,11.07,11.07,0,0,0,1.34-1.62,10.07,10.07,0,0,0,.92-1.64A6.29,6.29,0,0,0,80,60.19c-.62,0-1.23-.09-1.83-.11s-1.2,0-1.82,0l0,.21a2.75,2.75,0,0,1-.09.78A3.6,3.6,0,0,1,76,62a5,5,0,0,1-.48.83,4.29,4.29,0,0,1-.61.72,3.28,3.28,0,0,1-.7.51,1.65,1.65,0,0,1-.73.21,1,1,0,0,1-.51-.09.87.87,0,0,1-.36-.44,1.53,1.53,0,0,0,.76,0,3,3,0,0,0,.78-.35,4,4,0,0,0,.73-.59,4.94,4.94,0,0,0,.62-.75,4.12,4.12,0,0,0,.42-.84A2.42,2.42,0,0,0,76,60.26ZM76,59.82l0-.12-.06-.12-.42.28Zm.29,0c.64,0,1.27,0,1.89,0s1.24,0,1.86.1a1.51,1.51,0,0,0-.24-1,1,1,0,0,0-1-.33,4.63,4.63,0,0,0-1.34.27,7.37,7.37,0,0,0-1.37.65A1.48,1.48,0,0,1,76.24,59.8Zm6.19,17.34a6.77,6.77,0,0,0-.72-1,9.8,9.8,0,0,0-.87-1c-.31-.3-.61-.57-.91-.82s-.57-.46-.81-.64l.81.37c.29.14.58.3.88.47a8.47,8.47,0,0,1,.82.57,3.16,3.16,0,0,1,.64.62,1.64,1.64,0,0,1,.3.68A1,1,0,0,1,82.43,77.14Zm9.62-.3a.81.81,0,0,1-.2.64.93.93,0,0,1-.52.32,2.56,2.56,0,0,1-.93.06,7.12,7.12,0,0,1-1.06-.18c-.36-.1-.73-.21-1.1-.35l-1.09-.42-1-.41c-.32-.13-.61-.24-.86-.32.31.07.66.16,1.06.29l1.26.37c.43.12.87.22,1.31.32a10.05,10.05,0,0,0,1.26.18,4.18,4.18,0,0,0,1.08-.07A1.45,1.45,0,0,0,92.05,76.84Zm4.09-4.53a1.67,1.67,0,0,1,.14,1.21,2.51,2.51,0,0,1-.66,1.09,5.28,5.28,0,0,1-1.26.93,10.64,10.64,0,0,1-1.64.7,11.06,11.06,0,0,1-1.81.42,10,10,0,0,1-1.78.09,11.76,11.76,0,0,0,1.23-.23,9.94,9.94,0,0,0,1.39-.42,12.35,12.35,0,0,0,1.41-.62,8.6,8.6,0,0,0,1.29-.83,6.13,6.13,0,0,0,1-1.06A3.78,3.78,0,0,0,96.14,72.31Z" transform="translate(0 0)"></path><path class="cls-6" d="M77.79,71.15c-.33,0-.49-.22-.49-.61a4.53,4.53,0,0,1,.62-1.77L79,66.61c.1-.22.19-.43.27-.65a3.5,3.5,0,0,0,.2-.63,2.51,2.51,0,0,0,.08-.57.93.93,0,0,0-.08-.45,1.73,1.73,0,0,1,.66.24.9.9,0,0,1,.38.56,2,2,0,0,1-.05.93,5.48,5.48,0,0,1-.63,1.37l-1.12,2a2.21,2.21,0,0,0-.43,1.15c0,.2.28.18.73-.06a3.32,3.32,0,0,0,.63-.44,4.52,4.52,0,0,0,.65-.66,4.59,4.59,0,0,0,.51-.76,1.68,1.68,0,0,0,.2-.74.91.91,0,0,0-.1-.43.69.69,0,0,0-.35-.32.67.67,0,0,1,.27,0,1.09,1.09,0,0,1,.34.07.69.69,0,0,1,.28.2.55.55,0,0,1,.11.39,2.24,2.24,0,0,1-.21.75,4.39,4.39,0,0,1-.49.78,5.81,5.81,0,0,1-.69.72,7.58,7.58,0,0,1-.8.6,4.26,4.26,0,0,1-.83.41A2.26,2.26,0,0,1,77.79,71.15Z" transform="translate(0 0)"></path><path class="cls-6" d="M81.57,70.65l.2-.07a1.1,1.1,0,0,0,.25-.12,2.91,2.91,0,0,0,.63-.44,5.71,5.71,0,0,0,.64-.66,4,4,0,0,0,.51-.76,1.64,1.64,0,0,0,.21-.75.92.92,0,0,0-.11-.43.71.71,0,0,0-.34-.32.64.64,0,0,1,.26,0,1,1,0,0,1,.34.07.72.72,0,0,1,.29.2.55.55,0,0,1,.1.39,2.06,2.06,0,0,1-.32,1,4.86,4.86,0,0,1-.72,1,5.87,5.87,0,0,1-1,.81,4.71,4.71,0,0,1-1,.54,2.21,2.21,0,0,1-.73.15.56.56,0,0,1-.38-.13.51.51,0,0,1-.14-.41,2.55,2.55,0,0,1,.16-.78A10,10,0,0,1,81,68.59l2.58-5.18a6.11,6.11,0,0,0-.64,0,1,1,0,0,0-.43.13.86.86,0,0,1,.47-.52,3.4,3.4,0,0,1,.91-.26l.22-.46c.1-.22.19-.43.28-.65a4.34,4.34,0,0,0,.21-.64,2.44,2.44,0,0,0,.1-.57.89.89,0,0,0-.08-.45.86.86,0,0,1,.45.35,1.82,1.82,0,0,1,.23.62,2.93,2.93,0,0,1,0,.79,4.62,4.62,0,0,1-.19.88c.48,0,1,0,1.48,0s1,0,1.42-.05a4.21,4.21,0,0,0,1.11-.21.88.88,0,0,0,.6-.5,1.32,1.32,0,0,1-.19.8,1.46,1.46,0,0,1-.57.5,3.06,3.06,0,0,1-.87.26,6.79,6.79,0,0,1-1,.1c-.37,0-.75,0-1.14,0l-1.14-.06-.08.14-3,5.5c0,.09-.12.23-.2.41a3.86,3.86,0,0,0-.19.54.93.93,0,0,0,0,.46C81.31,70.63,81.41,70.68,81.57,70.65Z" transform="translate(0 0)"></path><path class="cls-6" d="M86.72,71c.28-.16.57-.32.85-.5a6.05,6.05,0,0,0,.83-.63c.23-.2.46-.42.7-.67a3.56,3.56,0,0,0,.59-.83,1.09,1.09,0,0,0,.13-.73.73.73,0,0,0-.45-.57.83.83,0,0,1,.26,0,1.26,1.26,0,0,1,.33,0,.62.62,0,0,1,.28.17.49.49,0,0,1,.12.34,1.46,1.46,0,0,1-.16.66,3.66,3.66,0,0,1-.41.67,4.6,4.6,0,0,1-.55.63c-.19.2-.39.38-.57.55a8.38,8.38,0,0,1-1.17.9c-.36.24-.73.46-1.12.68a4.77,4.77,0,0,0-.24.44c-.08.14-.15.26-.22.36l-.5.72a6,6,0,0,1-.56.69,4.07,4.07,0,0,1-.69.61,4.22,4.22,0,0,1-.9.46,2.11,2.11,0,0,1-.82.13.76.76,0,0,1-.59-.26.74.74,0,0,1-.12-.6,1.4,1.4,0,0,1,.48-.75,5.23,5.23,0,0,1,.66-.52c.25-.16.52-.32.8-.47l.87-.45.89-.46.74-1.49c-.17.15-.33.28-.49.4l-.44.29a3.4,3.4,0,0,1-.34.16,1.39,1.39,0,0,1-.33.1l-.23,0h-.22a.69.69,0,0,1-.76-.66,1.72,1.72,0,0,1,0-.66,3.58,3.58,0,0,1,.29-.76l1.47-2.74c.06-.11.13-.24.2-.4a3.8,3.8,0,0,0,.15-.51,3.05,3.05,0,0,0,0-.52,1,1,0,0,0-.09-.44,1.13,1.13,0,0,1,.65.18.88.88,0,0,1,.38.47,1.4,1.4,0,0,1,0,.72,2.65,2.65,0,0,1-.35.92L84.9,69.08a3,3,0,0,0-.5,1.22c0,.25.1.36.27.36a1.44,1.44,0,0,0,.54-.18,6.08,6.08,0,0,0,1-.88,5.8,5.8,0,0,0,.84-1.22,1.11,1.11,0,0,0,.12-.72.72.72,0,0,0-.44-.57.5.5,0,0,1,.19,0,1.07,1.07,0,0,1,.25,0,1.09,1.09,0,0,1,.24.07.53.53,0,0,1,.2.16l.55-1c.1-.21.19-.43.28-.65a5.25,5.25,0,0,0,.22-.63,3.19,3.19,0,0,0,.09-.57,1,1,0,0,0-.08-.46.86.86,0,0,1,.53.48,2.2,2.2,0,0,1,.19.89,3.68,3.68,0,0,1-.15,1.1,4.28,4.28,0,0,1-.48,1.1l-.34.61Zm-1.48,1.16-1,.55c-.35.19-.68.38-1,.57a4.2,4.2,0,0,0-.73.55.7.7,0,0,0-.28.51.24.24,0,0,0,.13.22.47.47,0,0,0,.27,0,1.09,1.09,0,0,0,.3-.07l.25-.09a3.38,3.38,0,0,0,1-.86A11.79,11.79,0,0,0,85.24,72.19Zm.7,1v0S85.92,73.22,85.94,73.19Z" transform="translate(0 0)"></path></svg>