<svg xmlns="http://www.w3.org/2000/svg" id="Layer_1" data-name="Layer 1" viewBox="0 0 275.38 275.38"><defs><style>.cls-1{fill:#fff193;fill-rule:evenodd;}</style></defs><path class="cls-1" d="M139.13,205.69a68,68,0,1,0-68-68,68.13,68.13,0,0,0,68,68Z"></path><polygon class="cls-1" points="139.06 11.1 150.88 62.49 127.32 62.49 139.06 11.1"></polygon><polygon class="cls-1" points="139.2 264.29 127.38 212.96 150.88 212.96 139.2 264.29"></polygon><polygon class="cls-1" points="12.5 137.79 63.9 125.98 63.9 149.47 12.5 137.79"></polygon><polygon class="cls-1" points="265.69 137.66 214.36 149.4 214.36 125.91 265.69 137.66"></polygon><polygon class="cls-1" points="49.57 48.23 94.18 76.21 77.61 92.84 49.57 48.23"></polygon><polygon class="cls-1" points="228.69 227.15 184.01 199.17 200.65 182.54 228.69 227.15"></polygon><polygon class="cls-1" points="49.64 227.28 77.61 182.61 94.25 199.24 49.64 227.28"></polygon><polygon class="cls-1" points="228.62 48.17 200.58 92.78 183.94 76.14 228.62 48.17"></polygon><polygon class="cls-1" points="98.8 44.5 119.37 63.38 97.64 72.41 98.8 44.5"></polygon><polygon class="cls-1" points="175.86 230.27 155.29 211.4 177.02 202.37 175.86 230.27"></polygon><polygon class="cls-1" points="44.48 175.95 63.36 155.31 72.32 177.04 44.48 175.95"></polygon><polygon class="cls-1" points="230.25 98.82 211.31 119.46 202.34 97.73 230.25 98.82"></polygon><polygon class="cls-1" points="44.41 98.96 72.32 97.73 63.36 119.46 44.41 98.96"></polygon><polygon class="cls-1" points="230.25 175.82 202.34 177.04 211.38 155.31 230.25 175.82"></polygon><polygon class="cls-1" points="98.94 230.34 97.71 202.43 119.44 211.4 98.94 230.34"></polygon><polygon class="cls-1" points="175.8 44.43 176.95 72.34 155.22 63.38 175.8 44.43"></polygon></svg>